<svg xmlns:xlink="http://www.w3.org/1999/xlink" xmlns="http://www.w3.org/2000/svg" aria-hidden="true" class="a-svg -r" focusable="false" style="--delay:200ms" width="228"  height="340" ><defs><symbol xmlns="http://www.w3.org/2000/svg" id="icon-r" viewBox="0 0 184.8 275"><path d="M6.2 10.2v254.7c0 2 1.6 3.6 3.6 3.6h67.7c2 0 3.6-1.6 3.6-3.6v-51c0-4.5 6.5-4.9 7.1-.5l14.8 52.3c.4 1.6 1.8 2.8 3.5 2.8h67.9c2.3 0 4.1-2.2 3.5-4.4l-24.8-86.8c-.4-1.6-1.8-2.8-3.5-2.8h-19.7c-4.3 0-5-5.9-1-7.2 29.8-9.5 47.9-41.3 47.9-76.6 0-50.8-24.1-84.2-76.9-84.2H9.8c-2 0-3.6 1.7-3.6 3.7Zm87.2 107.2c-.8 1.2-1.9 2.3-3.1 3.2-2.6 1.9-9.2 3-9.2-1.8V74.4c0-3.9 4-3.7 6.6-3 3.4.9 6 3.7 7.4 6.9 1.7 4 2.2 13 2.2 19.1s-1.6 16.7-3.9 20Z" style="" fill="#00522D"></path></symbol></defs><use href="#icon-r"></use></svg>