<svg xmlns:xlink="http://www.w3.org/1999/xlink" xmlns="http://www.w3.org/2000/svg" aria-hidden="true" class="a-svg -u" focusable="false" style="--delay:100ms" width="228"  height="340" ><defs><symbol xmlns="http://www.w3.org/2000/svg" id="icon-u" viewBox="0 0 184.8 275"><path d="M92.7 273.4c-28.1 0-49.3-9-63.8-26.9-14.5-18-21.7-46-21.7-84V9.3c0-2 1.6-3.6 3.6-3.6h69.9c2 0 3.6 1.6 3.6 3.6v125c0 27.6.3 42.9 1 45.8.9 4 3.3 6 7.4 6s6.1-1.9 6.7-5.6c.6-3.7 1-13.5 1-29.3V9.3c0-2 1.6-3.6 3.6-3.6h69.9c2 0 3.6 1.6 3.6 3.6v153.2c0 38.3-7.1 66.4-21.2 84.2-14.1 17.8-35.4 26.7-63.6 26.7Z" style="" fill="#00522D"></path></symbol></defs><use href="#icon-u"></use></svg>