<svg xmlns:xlink="http://www.w3.org/1999/xlink" xmlns="http://www.w3.org/2000/svg" aria-hidden="true" class="a-svg -e" focusable="false" style="--delay:250ms" width="236"  height="341" ><defs><symbol xmlns="http://www.w3.org/2000/svg" id="icon-e" viewBox="0 0 160 275"><path d="m155.7 192.8-65.2 12.7c-2 .4-4-1-4.3-3.1l-5.5-39.3c-.3-2.2 1.4-4.1 3.6-4.1h46.2c3.1 0 4.8-3.6 2.8-5.9L82.1 91c-1.9-2.4-.3-5.9 2.8-5.9h58.2c1.8 0 3.3-1.3 3.6-3l12-70.9c.4-2.2-1.3-4.2-3.6-4.2H8.5c-2 0-3.6 1.6-3.6 3.6v254.1c0 2 1.6 3.6 3.6 3.6h147.9c2 0 3.6-1.6 3.6-3.6v-68.2c0-2.3-2.1-4-4.3-3.6Z" style="" fill="#00522D"></path></symbol></defs><use href="#icon-e"></use></svg>