<svg xmlns:xlink="http://www.w3.org/1999/xlink" xmlns="http://www.w3.org/2000/svg" aria-hidden="true" class="a-svg -d" focusable="false" style="--delay:150ms" width="228"  height="340" ><defs><symbol xmlns="http://www.w3.org/2000/svg" id="icon-d" viewBox="0 0 184.8 275"><path d="M171.8 72.8c-4.7-17.4-11.6-30.9-20.7-40.4s-19.3-16.3-30.5-20.5c-11.2-4.2-24.3-6.2-39.1-6.2H9.6C7.6 5.7 6 7.3 6 9.3v254.1c0 2 1.6 3.6 3.6 3.6h71.9c16.1 0 29.8-2.1 41.3-6.2 11.5-4.2 21.5-11.1 30.2-20.7 8.7-9.7 15.2-23.1 19.5-40.4 4.3-17.3 6.4-38.4 6.4-63.3s-2.4-46.1-7.1-63.5ZM97.7 180.5c-1.6 5.7-4.3 9.4-8.2 11-2.4 1-5.1-.7-5.1-3.3V84.4c0-2.6 2.7-4.4 5.1-3.3 3.7 1.6 6.4 5.3 8 10.9 2.3 8 3.5 22.7 3.5 44.2s-1.1 36.3-3.3 44.2Z" style="" fill="#00522D"></path></symbol></defs><use href="#icon-d"></use></svg>