<svg xmlns:xlink="http://www.w3.org/1999/xlink" xmlns="http://www.w3.org/2000/svg" aria-hidden="true" class="a-svg -f" focusable="false" style="--delay:0ms" width="236"  height="341" ><defs><symbol xmlns="http://www.w3.org/2000/svg" id="icon-f" viewBox="0 0 160 275"><path d="M3.6 5.6h146.6c2.2 0 3.9 2 3.6 4.2l-12 70.9c-.3 1.7-1.8 3-3.6 3H80c-3.1 0-4.7 3.6-2.8 5.9l51.2 62.1c1.9 2.4.3 5.9-2.8 5.9H79.4c-2.2 0-3.9 1.9-3.6 4.1L90 262.6c.3 2.2-1.4 4.1-3.6 4.1H3.6c-2 0-3.6-1.6-3.6-3.6V9.3c0-2 1.6-3.6 3.6-3.6Z" style="" fill="#00522D"></path></symbol></defs><use href="#icon-f"></use></svg>