<svg xmlns:xlink="http://www.w3.org/1999/xlink" xmlns="http://www.w3.org/2000/svg" aria-hidden="true" class="a-svg -o" focusable="false" style="--delay:50ms" width="228"  height="340" ><defs><symbol xmlns="http://www.w3.org/2000/svg" fill="none" id="icon-o" viewBox="0 0 186 275"><path d="M93.622 275c-33.004 0-56.787-11.118-71.36-33.373C7.69 219.381.408 184.931.408 138.296S7.69 55.949 22.262 33.558C36.825 11.196 60.618 0 93.622 0s55.721 11.254 70.071 33.771c14.359 22.517 21.544 57.356 21.544 104.534s-7.185 81.086-21.544 103.331-37.716 33.374-70.07 33.374zm-6.263-99.101c1.173 6.296 3.267 9.449 6.263 9.449s5.09-3.143 6.273-9.449q1.763-9.447 1.765-37.594c0-18.763-.591-30.55-1.764-37.787-1.183-7.238-3.268-10.856-6.274-10.856q-4.505 0-6.263 10.856c-1.183 7.237-1.774 19.839-1.774 37.787s.591 31.297 1.774 37.594" fill="#00522D"></path></symbol></defs><use href="#icon-o"></use></svg>